<svg width="460" height="58" viewBox="0 0 460 58" fill="none" xmlns="http://www.w3.org/2000/svg">
<path d="M459.55 20.0977C459.595 22.832 459.094 25.4525 458.046 27.959C457.02 30.4427 455.608 32.5732 453.808 34.3506C452.03 36.1279 449.9 37.5407 447.416 38.5889C444.955 39.6143 442.369 40.1042 439.657 40.0586C436.102 40.127 432.798 39.2839 429.745 37.5293C426.714 35.752 424.31 33.3138 422.533 30.2148C420.779 27.1159 419.935 23.7435 420.004 20.0977C420.004 16.3151 420.858 12.8857 422.567 9.80957C424.299 6.7334 426.657 4.32943 429.643 2.59766C432.65 0.865885 435.989 0 439.657 0C443.326 0 446.675 0.865885 449.706 2.59766C452.759 4.32943 455.163 6.7334 456.918 9.80957C458.672 12.8857 459.55 16.3151 459.55 20.0977ZM455.893 20.0977C455.893 15.2214 454.354 11.1768 451.278 7.96387C448.202 4.72819 444.328 3.11035 439.657 3.11035C434.986 3.11035 431.135 4.72819 428.104 7.96387C425.074 11.1768 423.559 15.2214 423.559 20.0977C423.559 24.9512 425.074 28.973 428.104 32.1631C431.135 35.3304 434.986 36.9141 439.657 36.9141C444.306 36.9141 448.168 35.319 451.244 32.1289C454.343 28.9388 455.893 24.9284 455.893 20.0977ZM449.672 30.3857V30.9668H444.066C443.633 30.306 443.349 29.6338 443.212 28.9502C443.075 28.2438 442.984 27.1842 442.938 25.7715C442.87 24.6322 442.608 23.8688 442.152 23.4814C441.697 23.0941 440.751 22.9004 439.315 22.9004H436.786V30.9668H431.488V8.75H440.58C443.132 8.75 445.126 9.30827 446.561 10.4248C448.02 11.5413 448.749 13.182 448.749 15.3467C448.749 17.9899 447.632 19.8584 445.399 20.9521C447.313 21.5674 448.27 23.0143 448.27 25.293C448.27 26.7969 448.362 27.8906 448.544 28.5742C448.726 29.2578 449.102 29.8617 449.672 30.3857ZM443.451 15.7568C443.451 14.8226 443.189 14.1732 442.665 13.8086C442.141 13.444 441.309 13.2617 440.17 13.2617H436.786V18.4912H439.589C441.024 18.4912 442.027 18.2975 442.597 17.9102C443.166 17.5228 443.451 16.805 443.451 15.7568Z" fill="white"/>
<path d="M417.463 42.0293H391.828C391.828 44.946 392.523 47.1562 393.913 48.6602C395.303 50.1641 397.32 50.916 399.963 50.916C402.128 50.916 403.802 50.4489 404.987 49.5146C406.172 48.5576 406.97 47.1335 407.38 45.2422L416.882 46.0967C415.879 49.9932 413.942 52.9326 411.071 54.915C408.2 56.8747 404.497 57.8545 399.963 57.8545C394.562 57.8545 390.313 56.305 387.214 53.2061C383.841 49.902 382.155 45.3105 382.155 39.4316C382.155 33.5299 383.819 28.984 387.146 25.7939C390.313 22.695 394.562 21.1455 399.895 21.1455C405.272 21.1455 409.533 22.7861 412.678 26.0674C416.005 29.6676 417.6 34.9883 417.463 42.0293ZM393.64 30.5449C392.683 31.7982 392.102 33.3818 391.896 35.2959H407.517C407.312 33.0628 406.628 31.2855 405.466 29.9639C404.19 28.6195 402.333 27.9473 399.895 27.9473C397.046 27.9473 394.961 28.8132 393.64 30.5449Z" fill="white"/>
<path d="M347.989 39.5C347.989 33.9857 349.596 29.5537 352.809 26.2041C356.021 22.8317 360.419 21.1455 366.002 21.1455C370.514 21.1455 374.125 22.262 376.837 24.4951C379.549 26.7054 381.28 29.8158 382.032 33.8262L372.701 35.4326C372.291 33.0856 371.573 31.3311 370.548 30.1689C369.522 29.0068 368.007 28.4258 366.002 28.4258C363.29 28.4258 361.388 29.3031 360.294 31.0576C359.2 32.8122 358.653 35.6263 358.653 39.5C358.653 43.4193 359.189 46.2448 360.26 47.9766C361.354 49.7083 363.268 50.5742 366.002 50.5742C369.534 50.5742 371.767 48.5576 372.701 44.5244L382.237 45.5156C381.668 49.1842 379.936 52.1579 377.042 54.4365C374.148 56.7152 370.468 57.8545 366.002 57.8545C360.305 57.8545 355.873 56.248 352.706 53.0352C349.562 49.7995 347.989 45.2878 347.989 39.5Z" fill="white"/>
<path d="M345.747 35.5693V57H335.869V36.4238C335.869 34.6693 335.744 33.3477 335.493 32.459C335.243 31.5475 334.764 30.75 334.058 30.0664C333.465 29.5195 332.85 29.1549 332.212 28.9727C331.574 28.7676 330.674 28.665 329.512 28.665C327.666 28.665 326.117 29.417 324.863 30.9209C323.61 32.402 322.983 34.7262 322.983 37.8936V57H313.208V22H322.915V27.2637C323.735 25.2129 325.046 23.6862 326.846 22.6836C328.646 21.6582 330.788 21.1455 333.271 21.1455C335.459 21.1455 337.259 21.4076 338.672 21.9316C340.107 22.4329 341.418 23.276 342.603 24.4609C343.81 25.6686 344.631 27.1156 345.063 28.8018C345.519 30.488 345.747 32.7438 345.747 35.5693Z" fill="white"/>
<path d="M310.419 56.7266V57H300.678C300.336 55.5417 300.131 53.9808 300.062 52.3174C299.174 54.0036 297.772 55.348 295.858 56.3506C293.967 57.3532 291.723 57.8545 289.125 57.8545C285.479 57.8545 282.506 56.9202 280.204 55.0518C277.903 53.1833 276.752 50.5173 276.752 47.0537C276.752 45.3219 277.06 43.818 277.675 42.542C278.313 41.266 279.247 40.2178 280.478 39.3975C281.731 38.5771 283.098 37.9277 284.579 37.4492C286.083 36.9479 287.883 36.515 289.979 36.1504L299.481 34.373C299.481 33.0286 299.436 32.0716 299.345 31.502C299.254 30.9095 299.026 30.3512 298.661 29.8271C298.183 29.2119 297.556 28.7676 296.781 28.4941C296.029 28.2207 294.97 28.084 293.603 28.084C291.483 28.084 289.945 28.5511 288.988 29.4854C288.054 30.4196 287.587 32.0488 287.587 34.373L277.982 33.6895C277.982 29.2233 279.464 25.9762 282.426 23.9482C285.137 22.0798 289.102 21.1455 294.32 21.1455C298.992 21.1455 302.603 22.1367 305.155 24.1191C307.73 26.1016 309.018 28.9613 309.018 32.6982V50.7109C309.018 52.9668 309.485 54.972 310.419 56.7266ZM299.481 40.833L291.586 42.5762C289.968 42.8952 288.772 43.4079 287.997 44.1143C287.222 44.7979 286.835 45.7549 286.835 46.9854C286.835 48.2614 287.257 49.2412 288.1 49.9248C288.943 50.5856 290.082 50.916 291.518 50.916C294.001 50.916 295.95 50.2894 297.362 49.0361C298.775 47.7601 299.481 45.8916 299.481 43.4307V40.833Z" fill="white"/>
<path d="M274.202 35.5693V57H264.324V36.4238C264.324 34.6693 264.199 33.3477 263.948 32.459C263.698 31.5475 263.219 30.75 262.513 30.0664C261.92 29.5195 261.305 29.1549 260.667 28.9727C260.029 28.7676 259.129 28.665 257.967 28.665C256.121 28.665 254.572 29.417 253.318 30.9209C252.065 32.402 251.438 34.7262 251.438 37.8936V57H241.663V22H251.37V27.2637C252.19 25.2129 253.501 23.6862 255.301 22.6836C257.101 21.6582 259.243 21.1455 261.727 21.1455C263.914 21.1455 265.714 21.4076 267.127 21.9316C268.562 22.4329 269.873 23.276 271.058 24.4609C272.265 25.6686 273.086 27.1156 273.519 28.8018C273.974 30.488 274.202 32.7438 274.202 35.5693Z" fill="white"/>
<path d="M227.526 22H237.302V57H227.526V22ZM227.526 7.30273H237.302V17.3857H227.526V7.30273Z" fill="white"/>
<path d="M191.104 7.98633H225.558V16.4629H201.632V28.0156H222.96V36.4922H201.632V57H191.104V7.98633Z" fill="white"/>
<path d="M176.845 56.7266V57H167.104C166.762 55.5417 166.557 53.9808 166.488 52.3174C165.6 54.0036 164.198 55.348 162.284 56.3506C160.393 57.3532 158.148 57.8545 155.551 57.8545C151.905 57.8545 148.931 56.9202 146.63 55.0518C144.328 53.1833 143.178 50.5173 143.178 47.0537C143.178 45.3219 143.485 43.818 144.101 42.542C144.739 41.266 145.673 40.2178 146.903 39.3975C148.157 38.5771 149.524 37.9277 151.005 37.4492C152.509 36.9479 154.309 36.515 156.405 36.1504L165.907 34.373C165.907 33.0286 165.862 32.0716 165.771 31.502C165.679 30.9095 165.451 30.3512 165.087 29.8271C164.608 29.2119 163.982 28.7676 163.207 28.4941C162.455 28.2207 161.396 28.084 160.028 28.084C157.909 28.084 156.371 28.5511 155.414 29.4854C154.48 30.4196 154.013 32.0488 154.013 34.373L144.408 33.6895C144.408 29.2233 145.889 25.9762 148.852 23.9482C151.563 22.0798 155.528 21.1455 160.746 21.1455C165.417 21.1455 169.029 22.1367 171.581 24.1191C174.156 26.1016 175.443 28.9613 175.443 32.6982V50.7109C175.443 52.9668 175.91 54.972 176.845 56.7266ZM165.907 40.833L158.012 42.5762C156.394 42.8952 155.198 43.4079 154.423 44.1143C153.648 44.7979 153.261 45.7549 153.261 46.9854C153.261 48.2614 153.682 49.2412 154.525 49.9248C155.368 50.5856 156.508 50.916 157.943 50.916C160.427 50.916 162.375 50.2894 163.788 49.0361C165.201 47.7601 165.907 45.8916 165.907 43.4307V40.833Z" fill="white"/>
<path d="M145.789 21.1455L145.584 29.9639C144.536 29.8727 143.921 29.8271 143.738 29.8271C140.275 29.8271 137.7 30.75 136.014 32.5957C134.35 34.4186 133.519 37.3467 133.519 41.3799V57H123.743V22H133.382V28.5967C134.795 23.6292 138.623 21.1455 144.866 21.1455H145.789Z" fill="white"/>
<path d="M109.606 22H119.382V57H109.606V22ZM109.606 7.30273H119.382V17.3857H109.606V7.30273Z" fill="white"/>
<path d="M73.5605 22H84.1221L88.3945 37.415C89.6478 41.8812 90.582 45.3561 91.1973 47.8398C91.2884 47.5208 91.653 46.1536 92.291 43.7383C92.9518 41.3229 93.5215 39.2152 94 37.415L98.4092 22H108.834L96.8027 57H85.5918L73.5605 22Z" fill="white"/>
<path d="M40.3857 39.5C40.3857 34.0768 42.0378 29.6676 45.3418 26.2725C48.6458 22.8545 53.0664 21.1455 58.6035 21.1455C64.0951 21.1455 68.4814 22.8545 71.7627 26.2725C75.0667 29.6676 76.7188 34.0768 76.7188 39.5C76.7188 45.0143 75.0553 49.4577 71.7285 52.8301C68.4245 56.1797 64.0495 57.8545 58.6035 57.8545C52.9069 57.8545 48.4408 56.2253 45.2051 52.9668C41.9922 49.7083 40.3857 45.2194 40.3857 39.5ZM64.4482 48.2842C65.6331 46.5752 66.2256 43.6471 66.2256 39.5C66.2256 35.3529 65.6331 32.4248 64.4482 30.7158C63.2633 29.0068 61.3151 28.1523 58.6035 28.1523C55.8919 28.1523 53.9323 29.0182 52.7246 30.75C51.5169 32.459 50.9131 35.3757 50.9131 39.5C50.9131 43.6471 51.5055 46.5752 52.6904 48.2842C53.8981 49.9932 55.8691 50.8477 58.6035 50.8477C61.3379 50.8477 63.2861 49.9932 64.4482 48.2842Z" fill="white"/>
<path d="M41.1514 56.7949L41.083 57H29.7354C28.9834 55.724 28.4707 54.3454 28.1973 52.8643C27.9694 51.2236 27.8555 48.9678 27.8555 46.0967C27.8555 43.4535 27.1719 41.5166 25.8047 40.2861C24.4375 39.0557 22.3411 38.4404 19.5156 38.4404H11.415V57H0.819336V7.98633H19.8574C22.2956 7.98633 24.4489 8.11165 26.3174 8.3623C28.2087 8.61296 30.0088 9.06868 31.7178 9.72949C33.4268 10.3903 34.8281 11.2676 35.9219 12.3613C37.0384 13.4323 37.9157 14.8451 38.5537 16.5996C39.2145 18.3542 39.5449 20.4163 39.5449 22.7861C39.5449 25.68 38.8613 28.1751 37.4941 30.2715C36.1497 32.3678 34.2699 33.9287 31.8545 34.9541C34.1104 35.82 35.751 37.1188 36.7764 38.8506C37.8245 40.5596 38.3486 42.804 38.3486 45.584C38.3486 48.2044 38.5537 50.3577 38.9639 52.0439C39.374 53.7074 40.1032 55.291 41.1514 56.7949ZM29.1201 23.1963C29.1201 22.0342 28.9606 21.043 28.6416 20.2227C28.3454 19.3796 27.9352 18.7074 27.4111 18.2061C26.887 17.682 26.1807 17.2832 25.292 17.0098C24.4033 16.7135 23.4805 16.5199 22.5234 16.4287C21.5664 16.3148 20.4043 16.2578 19.0371 16.2578H11.415V30.2031H18.9688C20.6777 30.2031 22.1019 30.112 23.2412 29.9297C24.3805 29.7474 25.4173 29.417 26.3516 28.9385C27.3086 28.4372 28.0036 27.7194 28.4365 26.7852C28.8923 25.8281 29.1201 24.6318 29.1201 23.1963Z" fill="white"/>
</svg>
