<svg width="15" height="15" viewBox="0 0 15 15" fill="none" xmlns="http://www.w3.org/2000/svg">
<path d="M14.7257 0.27428C14.55 0.0986589 14.3118 0 14.0634 0C13.815 0 13.5768 0.0986589 13.4011 0.27428L7.50586 6.16952L1.61062 0.27428C1.43394 0.103636 1.1973 0.00921216 0.951676 0.0113466C0.706052 0.013481 0.471092 0.112003 0.297403 0.285692C0.123714 0.459381 0.0251926 0.69434 0.0230582 0.939964C0.0209238 1.18559 0.115348 1.42222 0.285992 1.59891L6.18123 7.49414L0.285992 13.3894C0.196519 13.4758 0.125152 13.5792 0.0760553 13.6935C0.0269589 13.8078 0.00111626 13.9307 3.53705e-05 14.0551C-0.00104552 14.1795 0.0226567 14.3028 0.0697595 14.4179C0.116862 14.5331 0.186422 14.6377 0.27438 14.7256C0.362338 14.8136 0.466933 14.8831 0.582061 14.9302C0.69719 14.9773 0.820547 15.001 0.944933 15C1.06932 14.9989 1.19225 14.973 1.30654 14.9239C1.42083 14.8748 1.5242 14.8035 1.61062 14.714L7.50586 8.81877L13.4011 14.714C13.5778 14.8847 13.8144 14.9791 14.06 14.9769C14.3057 14.9748 14.5406 14.8763 14.7143 14.7026C14.888 14.5289 14.9865 14.2939 14.9887 14.0483C14.9908 13.8027 14.8964 13.5661 14.7257 13.3894L8.83048 7.49414L14.7257 1.59891C14.9013 1.42323 15 1.185 15 0.936593C15 0.688189 14.9013 0.449955 14.7257 0.27428Z" fill="white"/>
</svg>
